<?xml version="1.0" standalone="no"?>
<!DOCTYPE svg PUBLIC "-//W3C//DTD SVG 20010904//EN"
 "http://www.w3.org/TR/2001/REC-SVG-20010904/DTD/svg10.dtd">
<svg version="1.0" xmlns="http://www.w3.org/2000/svg"
 width="512.000000pt" height="512.000000pt" viewBox="0 0 512.000000 512.000000"
 preserveAspectRatio="xMidYMid meet">

<g transform="translate(0.000000,512.000000) scale(0.100000,-0.100000)"
fill="#000000" stroke="none">
<path d="M2487 3136 c-21 -8 -55 -25 -75 -39 -22 -15 -71 -33 -122 -43 -71
-15 -90 -23 -117 -51 -18 -19 -38 -53 -44 -76 -14 -53 -6 -143 16 -188 23 -44
260 -281 304 -304 47 -24 131 -30 188 -15 41 12 68 33 186 149 77 75 148 153
159 174 28 56 34 125 14 183 -28 86 -49 102 -156 127 -55 13 -109 32 -128 46
-67 47 -155 62 -225 37z"/>
<path d="M400 2987 c-27 -9 -35 -17 -35 -37 0 -32 44 -49 130 -50 86 -1 326
-26 471 -50 240 -39 447 -89 672 -162 68 -21 136 -40 153 -40 60 -2 96 70 65
130 -17 33 -44 46 -189 87 -203 57 -420 88 -762 109 -403 25 -467 26 -505 13z"/>
<path d="M4535 2993 c-206 -9 -575 -35 -680 -49 -189 -24 -441 -82 -548 -125
-83 -34 -65 -174 22 -171 17 0 85 19 153 40 225 73 432 123 672 162 145 24
385 49 471 50 86 1 130 18 130 50 0 20 -8 28 -35 37 -19 7 -53 11 -75 10 -22
0 -71 -2 -110 -4z"/>
<path d="M1465 2593 c-297 -15 -696 -75 -1179 -177 -228 -48 -262 -59 -280
-88 -27 -43 49 -60 159 -36 359 79 747 117 1293 127 l364 6 24 28 c38 45 27
113 -23 136 -22 10 -201 12 -358 4z"/>
<path d="M3294 2589 c-47 -24 -57 -93 -20 -136 l24 -28 364 -6 c546 -10 934
-48 1293 -127 110 -24 186 -7 159 36 -18 29 -52 39 -297 91 -546 116 -923 167
-1297 176 -140 4 -212 2 -226 -6z"/>
<path d="M1650 2351 c-206 -54 -534 -176 -720 -269 -82 -41 -95 -50 -95 -72 0
-20 7 -27 35 -34 30 -7 52 -2 150 37 178 70 263 92 602 157 115 21 217 44 228
50 31 16 43 56 30 96 -24 71 -67 78 -230 35z"/>
<path d="M3273 2365 c-48 -34 -50 -120 -4 -145 12 -6 125 -31 253 -56 294 -56
424 -90 570 -148 64 -25 127 -46 140 -46 33 0 61 22 57 46 -10 49 -523 259
-819 334 -130 34 -166 36 -197 15z"/>
</g>
</svg>
